<?xml version="1.0" encoding="UTF-8"?>
<svg width="128px" height="128px" viewBox="0 0 128 128" version="1.1" xmlns="http://www.w3.org/2000/svg" xmlns:xlink="http://www.w3.org/1999/xlink">
    <title>Mask</title>
    <g id="Page-1" stroke="none" stroke-width="1" fill="none" fill-rule="evenodd">
        <g id="Mask" fill-rule="nonzero">
            <rect id="Rectangle" x="0" y="0" width="128" height="128"></rect>
            <g id="Group" transform="translate(8.871633, 45.226607)" fill="#000000">
                <path d="M72.2697298,18.326506 C72.2697298,28.4479127 64.0646303,36.6530121 53.9432237,36.6530121 C43.8216799,36.6530121 35.6167177,28.4479127 35.6167177,18.326506 C35.6167177,8.20509942 43.8216799,8.22733694e-15 53.9432237,8.22733694e-15 C64.0646303,8.22733694e-15 72.2697298,8.20509942 72.2697298,18.326506 Z" id="Path"></path>
                <path d="M18.8236416,1.74517895 C19.1594483,1.1633154 19.9991707,1.1633154 20.3351146,1.74517895 L39.0405181,34.1438628 C39.3764619,34.7255891 38.9565321,35.4527813 38.2847816,35.4527813 L0.873974591,35.4527813 C0.202224104,35.4527813 -0.217705721,34.7255891 0.118238139,34.1438628 L18.8236416,1.74517895 Z" id="Path"></path>
                <path d="M76.4131746,1.09085692 C75.4492572,1.09085692 74.6678584,1.87225575 74.6678584,2.8361731 L74.6678584,33.8167018 C74.6678584,34.7807563 75.4492572,35.5621552 76.4131746,35.5621552 L107.393703,35.5621552 C108.357621,35.5621552 109.139157,34.7807563 109.139157,33.8167018 L109.139157,2.8361731 C109.139157,1.87225575 108.357621,1.09085692 107.393703,1.09085692 L76.4131746,1.09085692 Z" id="Path"></path>
            </g>
        </g>
    </g>
</svg>