<svg fill="none" height="297" viewBox="0 0 766 297" width="766" xmlns="http://www.w3.org/2000/svg"><path d="m136.7 2.49999h-62.4335v9.01001h25.8635v70.49h10.706v-70.49h25.864zm59.306 0v33.28401h-40.28v-33.28401h-10.706v79.50001h10.706v-37.206h40.28v37.206h10.706v-79.50001zm25.842 0v79.50001h10.706v-79.50001zm85.234 38.69001h-.742c-1.802 0-3.286-1.378-3.286-3.074s-1.484-2.968-3.286-2.968h-16.854c-1.802 0-3.286 1.484-3.286 3.286v.424c0 1.802-1.484 3.286-3.286 3.286h-13.568c-1.802 0-3.286-1.484-3.286-3.286v-17.172c0-1.802 1.484-3.286 3.286-3.286h32.542c1.802 0 3.286 1.272 3.286 2.968s1.484 3.074 3.286 3.074h6.254c1.802 0 3.286-1.378 3.286-3.074s-1.484-2.968-3.286-2.968h-4.028c-1.802 0-3.286-1.484-3.286-3.286v-9.328c0-1.80201-1.484-3.28601-3.286-3.28601h-36.994c-1.802 0-3.286 1.484-3.286 3.28601v9.328c0 1.802-1.484 3.286-3.286 3.286h-6.148c-1.802 0-3.286 1.484-3.286 3.286v17.49c0 1.802 1.484 3.286 3.286 3.286h5.194c1.802 0 3.286 1.272 3.286 2.862s1.484 2.862 3.286 2.862h20.564c1.802 0 3.286-1.484 3.286-3.286v-.424c0-1.802 1.484-3.286 3.286-3.286h11.766c1.802 0 3.286 1.484 3.286 3.286v18.338c0 1.802-1.484 3.286-3.286 3.286h-33.602c-1.802 0-3.286 1.484-3.286 3.286v3.286c0 1.802-1.484 3.286-3.286 3.286h-4.982c-1.802 0-3.286-1.484-3.286-3.286v-6.254c0-1.802-.848-3.286-1.908-3.286s-1.908 1.484-1.908 3.286v12.296c0 1.802 1.484 3.286 3.286 3.286h49.184c1.802 0 3.286-1.484 3.286-3.286v-2.756c0-1.802 1.484-3.286 3.286-3.286h1.802c1.802 0 3.286-1.484 3.286-3.286v-24.91c0-1.802-1.484-3.286-3.286-3.286zm50.082-38.69001v79.50001h10.706v-79.50001zm57.992 26.81801 33.814-27.454v-1.166002l-2.226 1.801992h-49.078l-10.706 8.37401v27.772h44.626v34.344h-37.524v-17.702l14.734-11.978v-1.166l-29.998 24.274v1.272l4.558-3.71v9.54l10.706 8.48h28.09l19.61-16.006v-28.726h-44.096v-25.758h37.948l-20.458 16.642zm134.007-26.81801h-62.434v9.01001h25.864v70.49h10.706v-70.49h25.864zm41.392 45.47401c9.752 0 16.218 3.392 16.218 8.374 0 5.406-4.77 9.964-4.77 17.49 0 5.724 5.194 9.54 12.932 9.54 7.102 0 11.872-3.286 11.872-8.268 0-11.872-16.536-3.18-16.536-9.964 0-5.512 14.522-5.088 14.522-13.038 0-8.374-18.55-4.028-18.55-9.328 0-5.512 14.522-2.226 14.522-8.798 0-9.434-12.614-6.996-12.614-12.932 0-5.406 15.582-6.042 15.582-12.614 0-3.07401-1.908-4.346-7.208-4.346s-17.702 5.512-17.702 14.204c0 9.01 3.18 10.918 3.18 15.688 0 4.876-4.558 9.54-11.342 9.54s-11.554-4.664-11.554-9.54c0-4.77 3.18-6.678 3.18-15.688 0-8.692-12.402-14.204-17.702-14.204s-7.208 1.27199-7.208 4.346c0 6.572 15.582 7.208 15.582 12.614 0 5.936-12.614 3.498-12.614 12.932 0 6.572 14.522 3.286 14.522 8.798 0 5.3-18.55.954-18.55 9.328 0 7.95 14.522 7.526 14.522 13.038 0 6.784-16.536-1.908-16.536 9.964 0 4.982 4.77 8.268 11.872 8.268 7.738 0 12.932-3.816 12.932-9.54 0-7.526-4.77-12.084-4.77-17.49 0-4.982 6.466-8.374 16.218-8.374zm47.677 34.026h50.35v-9.328h-39.644v-27.878h34.98v-9.01h-34.98v-24.062h39.644v-9.22201h-50.35zm-589.301 26.5v42.506h-1.696v-5.83h-4.452v-6.36h-5.194v-5.83h-5.406v-6.466h-5.088v-5.83h-4.452v-6.36h-5.194v-5.83h-17.3839875v79.5h10.7059875v-67.416h1.908v5.83h4.452v6.254h5.088v5.936h5.406v6.466h5.194v5.83h4.452v6.254h5.088v5.936h6.572v24.91h10.706v-79.5zm69.294 9.222v-9.222h-50.3502v79.5h50.3502v-9.328h-39.6442v-27.984h23.0022v4.664h10.918v-9.01h-8.268v-4.664h-25.6522v-23.956zm59.233 3.71-20.564 66.356h-11.978l-21.624-79.5h11.13l16.854 67.734 19.292-67.734h13.992l19.08 66.992 16.642-66.992h10.918l-21.624 79.5h-11.554zm144.544 6.996h11.872v-13.78h-9.752v-7.102h-41.022v9.01h38.902zm2.756 38.69c-3.392 9.328-10.6 13.462-19.504 13.462-14.628 0-24.486-13.356-24.486-33.39v-21.942h-10.706v22.048c0 25.334 14.204 42.294 35.298 42.294 13.568 0 23.956-6.572 29.468-19.504zm79.131 20.882-18.656-34.45c11.13-2.968 16.218-10.176 16.218-22.048 0-15.688-10.282-23.002-30.316-23.002h-24.804v79.5h10.706v-32.86h14.098c1.378 0 2.65 0 3.922-.106l18.126 32.966zm-34.344-41.87h-12.508v-28.62h12.508c15.37 0 21.518 4.134 21.518 13.992 0 10.282-6.148 14.628-21.518 14.628zm44.699 41.87h50.35v-9.328h-39.644v-27.878h34.98v-9.01h-34.98v-24.062h39.644v-9.222h-50.35zm123.234 0h11.024l-29.044-79.394h-15.582v11.236h-4.028v7.314h-3.498v7.526h-2.862v7.208h-3.392v7.632h-3.286v7.42h-2.968v7.208h-3.074v7.314h-3.498v7.42h-2.226v9.01h10.706v-7.42h2.332v-7.314h3.498v-7.208h3.074v-7.42h32.224zm-36.57-38.478v-5.83h3.286v-7.526h2.862v-7.314h3.498v-7.95h2.862l10.282 28.62zm115.174-41.022h-62.434v9.01h25.864v70.49h10.706v-70.49h25.864zm8.85 0v79.5h10.706v-79.5zm48.982 73.882c0 4.77 3.18 7.42 7.844 7.42 10.494 0 17.49-6.36 17.49-15.794 0-13.25-8.268-13.356-8.268-19.186 0-8.268 13.144-5.936 13.144-33.178 0-8.268-5.088-13.78-12.614-13.78-6.254 0-10.494 4.24-10.494 10.494 0 12.614 12.72 13.356 12.72 22.79 0 11.024-15.582 1.802-15.582 12.19 0 6.042 12.614 5.936 12.614 15.688 0 4.664-2.65 7.738-6.678 7.738-5.512 0-9.116-4.876-9.116-12.084 0-10.282-15.582-7.844-15.582-25.546 0-10.388 9.54-9.54 9.54-22.472 0-4.982-3.498-8.374-8.692-8.374-7.526 0-12.614 5.512-12.614 13.78 0 23.426 12.402 22.048 12.402 35.298 0 5.512-3.604 9.222-3.604 12.932 0 8.692 17.49 5.618 17.49 12.084zm41.699 5.618h50.35v-9.328h-39.644v-27.878h34.98v-9.01h-34.98v-24.062h39.644v-9.222h-50.35zm-599.053 106h50.35v-9.328h-39.644v-27.878h34.98v-9.01h-34.98v-24.062h39.644v-9.222h-50.35zm72.778-39.326c0 17.384 10.07 32.86 27.666 32.86 7.526 0 25.758-3.71 26.288-41.022h1.166c1.06 39.326-16.536 49.82-33.496 49.82-20.034 0-34.132-16.748-34.132-41.764 0-24.274 14.098-40.386 37.63-40.386 8.798 0 17.914 1.908 27.242 6.89l-19.716 18.126-.636-.424c3.392-4.77 5.194-7.632 5.194-11.66 0-5.83-5.406-6.996-11.13-6.996-15.476 0-26.076 17.384-26.076 34.556zm98.805 41.128c22.154 0 36.888-16.218 36.888-40.492 0-24.698-14.734-41.128-36.888-41.128s-36.994 16.43-36.994 41.128c0 24.274 14.84 40.492 36.994 40.492zm24.698-16.112c-11.13 11.236-30.528 6.572-43.248-5.936-12.932-12.614-17.384-32.436-6.254-43.566s30.528-6.36 43.354 6.466c12.72 12.72 17.172 31.906 6.148 43.036zm71.439-65.19v62.752l-36.04-62.752h-12.826v79.5h10.706v-62.54l36.888 62.54h11.978v-79.5zm22.181 66.568v-53.424h10.706v-5.936h5.936v-7.632h41.022v10.07h-36.676v10.282h-10.282v46.64zm73.246-52.364v53.424h-10.706v5.936h-5.936v7.632h-41.022v-10.07h36.676v-10.282h10.282v-46.64zm8.332 65.296h10.706v-67.522h4.346v31.482h3.922v9.752h4.664v9.752h4.134v9.752h4.134v6.784h13.674v-6.784h5.3v-9.752h4.134v-9.752h4.664v-9.752h3.922v-31.482h4.346v67.522h10.706v-79.5h-4.346v-.212l-19.822.106v40.492h-3.816v9.752h-4.77v9.858h-4.24v10.07h-4.664v-10.07h-4.24v-9.858h-4.77v-9.752h-3.816v-40.492l-19.822-.106v.212h-4.346zm136.144-79.394-20.246 35.934-20.246-35.828h-11.872l26.818 46.428v32.86h10.706v-32.86l26.394-46.534zm23.549 80.878c4.452 0 6.89-2.544 6.89-6.89 0-4.452-2.438-6.89-6.89-6.89s-6.89 2.438-6.89 6.89c0 4.346 2.438 6.89 6.89 6.89z" fill="#fff"/></svg>