<svg fill="none" height="191" viewBox="0 0 255 191" width="255" xmlns="http://www.w3.org/2000/svg"><path d="m67.3016 1.5h-29.45v4.25h12.2v33.25h5.05v-33.25h12.2zm28.0687 0v15.7h-19v-15.7h-5.05v37.5h5.05v-17.55h19v17.55h5.0497v-37.5zm12.2837 0v37.5h5.05v-37.5zm40.299 18.25h-.35c-.85 0-1.55-.65-1.55-1.45s-.7-1.4-1.55-1.4h-7.95c-.85 0-1.55.7-1.55 1.55v.2c0 .85-.7 1.55-1.55 1.55h-6.4c-.85 0-1.55-.7-1.55-1.55v-8.1c0-.85.7-1.55 1.55-1.55h15.35c.85 0 1.55.6 1.55 1.4s.7 1.45 1.55 1.45h2.95c.85 0 1.55-.65 1.55-1.45s-.7-1.4-1.55-1.4h-1.9c-.85 0-1.55-.7-1.55-1.55v-4.4c0-.85-.7-1.55-1.55-1.55h-17.45c-.85 0-1.55.7-1.55 1.55v4.4c0 .85-.7 1.55-1.55 1.55h-2.9c-.85 0-1.55.7-1.55 1.55v8.25c0 .85.7 1.55 1.55 1.55h2.45c.85 0 1.55.6 1.55 1.35s.7 1.35 1.55 1.35h9.7c.85 0 1.55-.7 1.55-1.55v-.2c0-.85.7-1.55 1.55-1.55h5.55c.85 0 1.55.7 1.55 1.55v8.65c0 .85-.7 1.55-1.55 1.55h-15.85c-.85 0-1.55.7-1.55 1.55v1.55c0 .85-.7 1.55-1.55 1.55h-2.35c-.85 0-1.55-.7-1.55-1.55v-2.95c0-.85-.4-1.55-.9-1.55s-.9.7-.9 1.55v5.8c0 .85.7 1.55 1.55 1.55h23.2c.85 0 1.55-.7 1.55-1.55v-1.3c0-.85.7-1.55 1.55-1.55h.85c.85 0 1.55-.7 1.55-1.55v-11.75c0-.85-.7-1.55-1.55-1.55zm23.813-18.25v37.5h5.05v-37.5zm27.448 12.65 15.95-12.95v-.550001l-1.05.850001h-23.15l-5.05 3.95v13.1h21.05v16.2h-17.7v-8.35l6.95-5.65v-.55l-14.15 11.45v.6l2.15-1.75v4.5l5.05 4h13.25l9.25-7.55v-13.55h-20.8v-12.15h17.9l-9.65 7.85zm-155.5941 37.35h-29.45v4.25h12.2v33.25h5.05v-33.25h12.2zm19.6188 21.45c4.6 0 7.65 1.6 7.65 3.95 0 2.55-2.25 4.7-2.25 8.25 0 2.7 2.45 4.5 6.1 4.5 3.35 0 5.6-1.55 5.6-3.9 0-5.6-7.8-1.5-7.8-4.7 0-2.6 6.85-2.4 6.85-6.15 0-3.95-8.75-1.9-8.75-4.4 0-2.6 6.85-1.05 6.85-4.15 0-4.45-5.95-3.3-5.95-6.1 0-2.55 7.35-2.85 7.35-5.95 0-1.45-.9-2.05-3.4-2.05s-8.35 2.6-8.35 6.7c0 4.25 1.5 5.15 1.5 7.4 0 2.3-2.15 4.5-5.35 4.5s-5.45-2.2-5.45-4.5c0-2.25 1.5-3.15 1.5-7.4 0-4.1-5.85-6.7-8.35-6.7s-3.4.6-3.4 2.05c0 3.1 7.35 3.4 7.35 5.95 0 2.8-5.95 1.65-5.95 6.1 0 3.1 6.85 1.55 6.85 4.15 0 2.5-8.75.45-8.75 4.4 0 3.75 6.85 3.55 6.85 6.15 0 3.2-7.8-.9-7.8 4.7 0 2.35 2.25 3.9 5.6 3.9 3.65 0 6.1-1.8 6.1-4.5 0-3.55-2.25-5.7-2.25-8.25 0-2.35 3.05-3.95 7.65-3.95zm22.5836 16.05h23.7497v-4.4h-18.6997v-13.15h16.4997v-4.25h-16.4997v-11.35h18.6997v-4.35h-23.7497zm67.8387-37.5v20.05h-.8v-2.75h-2.1v-3h-2.45v-2.75h-2.55v-3.05h-2.4v-2.75h-2.1v-3h-2.45v-2.75h-8.2v37.5h5.05v-31.8h.9v2.75h2.1v2.95h2.4v2.8h2.55v3.05h2.45v2.75h2.1v2.95h2.4v2.8h3.1v11.75h5.05v-37.5zm32.78 4.35v-4.35h-23.75v37.5h23.75v-4.4h-18.7v-13.2h10.85v2.2h5.15v-4.25h-3.9v-2.2h-12.1v-11.3zm28.035 1.75-9.7 31.3h-5.65l-10.2-37.5h5.25l7.95 31.95 9.1-31.95h6.6l9 31.6 7.85-31.6h5.15l-10.2 37.5h-5.45zm-180.7758 53.3h5.6v-6.5h-4.6v-3.35h-19.35v4.25h18.35zm1.3 18.25c-1.6 4.4-5 6.35-9.2 6.35-6.9 0-11.55-6.3-11.55-15.75v-10.35h-5.05v10.4c0 11.95 6.7 19.95 16.65 19.95 6.4 0 11.3-3.1 13.9-9.2zm37.4203 9.85-8.8-16.25c5.25-1.4 7.65-4.8 7.65-10.4 0-7.4-4.85-10.85-14.3-10.85h-11.7v37.5h5.05v-15.5h6.65c.65 0 1.25 0 1.85-.05l8.55 15.55zm-16.2-19.75h-5.9v-13.5h5.9c7.25 0 10.15 1.95 10.15 6.6 0 4.85-2.9 6.9-10.15 6.9zm21.1789 19.75h23.7496v-4.4h-18.6996v-13.15h16.5v-4.25h-16.5v-11.35h18.6996v-4.35h-23.7496zm58.2236 0h5.2l-13.7-37.45h-7.35v5.3h-1.9v3.45h-1.65v3.55h-1.35v3.4h-1.6v3.6h-1.55v3.5h-1.4v3.4h-1.45v3.45h-1.65v3.5h-1.05v4.25h5.05v-3.5h1.1v-3.45h1.65v-3.4h1.45v-3.5h15.2zm-17.25-18.15v-2.75h1.55v-3.55h1.35v-3.45h1.65v-3.75h1.35l4.85 13.5zm54.422-19.35h-29.45v4.25h12.2v33.25h5.05v-33.25h12.2zm4.268 0v37.5h5.05v-37.5zm23.199 34.85c0 2.25 1.5 3.5 3.7 3.5 4.95 0 8.25-3 8.25-7.45 0-6.25-3.9-6.3-3.9-9.05 0-3.9 6.2-2.8 6.2-15.65 0-3.9-2.4-6.5-5.95-6.5-2.95 0-4.95 2-4.95 4.95 0 5.95 6 6.3 6 10.75 0 5.2-7.35.85-7.35 5.75 0 2.85 5.95 2.8 5.95 7.4 0 2.2-1.25 3.65-3.15 3.65-2.6 0-4.3-2.3-4.3-5.7 0-4.85-7.35-3.7-7.35-12.05 0-4.9 4.5-4.5 4.5-10.6 0-2.35-1.65-3.95-4.1-3.95-3.55 0-5.95 2.6-5.95 6.5 0 11.05 5.85 10.4 5.85 16.65 0 2.6-1.7 4.35-1.7 6.1 0 4.1 8.25 2.65 8.25 5.7zm19.764 2.65h23.75v-4.4h-18.7v-13.15h16.5v-4.25h-16.5v-11.35h18.7v-4.35h-23.75zm-219.506469 50h23.749969v-4.4h-18.69997v-13.15h16.49997v-4.25h-16.49997v-11.35h18.69997v-4.35h-23.749969zm34.423469-18.55c0 8.2 4.75 15.5 13.05 15.5 3.55 0 12.15-1.75 12.4-19.35h.55c.5 18.55-7.8 23.5-15.8 23.5-9.45 0-16.1-7.9-16.1-19.7 0-11.45 6.65-19.05 17.75-19.05 4.15 0 8.45.9 12.85 3.25l-9.3 8.55-.3-.2c1.6-2.25 2.45-3.6 2.45-5.5 0-2.75-2.55-3.3-5.25-3.3-7.3 0-12.3 8.2-12.3 16.3zm46.7004 19.4c10.45 0 17.4-7.65 17.4-19.1 0-11.65-6.95-19.4-17.4-19.4s-17.45 7.75-17.45 19.4c0 11.45 7 19.1 17.45 19.1zm11.65-7.6c-5.25 5.3-14.4 3.1-20.4-2.8-6.1-5.95-8.2-15.3-2.95-20.55s14.4-3 20.45 3.05c6 6 8.1 15.05 2.9 20.3zm33.7916-30.75v29.6l-17-29.6h-6.05v37.5h5.05v-29.5l17.4 29.5h5.65v-37.5zm10.558 31.4v-25.2h5.05v-2.8h2.8v-3.6h19.35v4.75h-17.3v4.85h-4.85v22zm34.55-24.7v25.2h-5.05v2.8h-2.8v3.6h-19.35v-4.75h17.3v-4.85h4.85v-22zm4.024 30.8h5.05v-31.85h2.05v14.85h1.85v4.6h2.2v4.6h1.95v4.6h1.95v3.2h6.45v-3.2h2.5v-4.6h1.95v-4.6h2.2v-4.6h1.85v-14.85h2.05v31.85h5.05v-37.5h-2.05v-.1l-9.35.05v19.1h-1.8v4.6h-2.25v4.65h-2v4.75h-2.2v-4.75h-2v-4.65h-2.25v-4.6h-1.8v-19.1l-9.35-.05v.1h-2.05zm64.313-37.45-9.55 16.95-9.55-16.9h-5.6l12.65 21.9v15.5h5.05v-15.5l12.45-21.95zm11.202 38.15c2.1 0 3.25-1.2 3.25-3.25 0-2.1-1.15-3.25-3.25-3.25s-3.25 1.15-3.25 3.25c0 2.05 1.15 3.25 3.25 3.25z" fill="#fff"/></svg>